<svg xmlns="http://www.w3.org/2000/svg" width="32" height="32" viewBox="200 12 32 32"><g data-name="📍 Leading Icon l Use High Emphasis"><path d="M216 12c8.837 0 16 7.163 16 16s-7.163 16-16 16-16-7.163-16-16 7.163-16 16-16Z" fill="#fff" fill-rule="evenodd" data-name="Path 594"/><g data-name="XMLID_20385_"><path d="M220.253 25.655a2.63 2.63 0 0 0-1.44-1.483c-.599-.242-1.198-.242-1.768.028-.399.186-1.368.186-1.782 0a2.18 2.18 0 0 0-1.768-.028c-.67.27-1.183.798-1.44 1.483a2.911 2.911 0 0 0 .072 2.266c.3.628.727 1.27 1.283 1.91.67.756 1.511 1.512 2.509 2.239a.387.387 0 0 0 .485 0c.998-.727 1.839-1.483 2.509-2.238.556-.642.983-1.283 1.283-1.91.313-.714.342-1.54.057-2.267Z" fill="#afb8ca" fill-rule="evenodd"/><path d="M220.253 25.655a2.63 2.63 0 0 0-1.44-1.483c-.599-.242-1.198-.242-1.768.028-.399.186-1.368.186-1.782 0a2.18 2.18 0 0 0-1.768-.028c-.67.27-1.183.798-1.44 1.483a2.911 2.911 0 0 0 .072 2.266c.3.628.727 1.27 1.283 1.91.67.756 1.511 1.512 2.509 2.239a.387.387 0 0 0 .485 0c.998-.727 1.839-1.483 2.509-2.238.556-.642.983-1.283 1.283-1.91h0c.313-.714.342-1.54.057-2.267Z" stroke-linejoin="round" stroke-linecap="round" stroke="#2c3d63" fill="transparent"/></g><path d="M204.5 27.902a11.5 11.5 0 1 1 0 .096z" stroke-linejoin="round" stroke-linecap="round" stroke="#2c3d63" fill="transparent" data-name="Ellipse 31" stroke-width=".95833"/></g></svg>