<svg xmlns="http://www.w3.org/2000/svg" width="60" height="60" viewBox="238 39.95 60 60"><g data-name="Group 440"><g data-name="Oval"><path d="M238 69.9a30 30 0 1 1 0 .1z" fill="#ff804e" fill-rule="evenodd"/><path d="M238.5 69.9a29.5 29.5 0 1 1 0 .1z" stroke-linejoin="round" stroke-linecap="round" stroke="rgba(0,88,255,0.1 )" fill="transparent" stroke-width=".98333"/></g><g data-name="new order created"><g data-name="Group 899"><g data-name="Group 833"><g data-name="Group 830"><g data-name="Group 829"><path d="M280.9 68.375c0-.917 0-1.833.02-2.75 0-1.813.021-3.646.021-5.458 0-1.324.02-2.648.02-3.972 0-.712-.162-1.385-.692-1.894a2.527 2.527 0 0 0-1.772-.692h-5.316l.611.61v-.997c0-.489-.04-.957-.427-1.324-.347-.346-.795-.407-1.263-.407H269.963l.611.61c-.02-1.1-.325-2.26-1.14-3.054-.55-.53-1.263-.856-2.016-.978-1.61-.265-3.422.224-4.4 1.609-.488.692-.692 1.589-.692 2.424l.61-.611h-1.995c-.387 0-.774 0-1.12.203-.51.306-.672.815-.672 1.365v1.14l.61-.61h-4.887c-.306 0-.59 0-.876.04a2.413 2.413 0 0 0-1.874 1.507c-.122.367-.122.713-.122 1.1V86.42c.02 1.405 1.242 2.321 2.587 2.321h5.805c.793 0 .793-1.222 0-1.222h-5.785c-.387 0-.672-.04-.998-.285a1.053 1.053 0 0 1-.387-.631c0-.02-.02-.122 0-.04V55.91c0-.04.02-.203 0-.122.081-.57.59-.978 1.181-.998.632-.02 1.283 0 1.935 0H259.781a.626.626 0 0 0 .61-.611v-1.344c0 .02.02.081 0-.02-.02.04-.02.04.02-.02-.04.04-.04.02.02-.021.062-.061.062-.061.164-.061H262.977a.626.626 0 0 0 .612-.611c0-.123 0-.224.02-.347 0-.06.02-.142.02-.203.02-.122-.02.142 0 .02 0-.04.02-.102.02-.142.021-.163.062-.306.123-.449.02-.081.061-.162.081-.224-.06.163 0 .02 0 0 .02-.06.062-.101.082-.163a.841.841 0 0 1 .142-.224c.02-.04.062-.081.082-.101-.082.122 0 0 .02-.02a.965.965 0 0 1 .204-.204c.04-.041.081-.062.102-.102.02-.02.06-.041.081-.061-.06.04-.06.04 0 0 .448-.306.774-.428 1.324-.53a3.778 3.778 0 0 1 1.181-.061h.082c.122 0-.163-.02-.04 0 .06.02.121.02.182.04.143.021.286.062.428.103.061.02.143.04.204.081.122.04-.122-.061 0 0 .04.02.06.04.102.04.163.082.305.164.448.266-.143-.102-.02-.02 0 0l.122.122c.081.06.142.142.204.224.101.102-.062-.102.02.02.04.061.081.102.102.163.06.102.122.204.163.306 0 .02.081.183.02.04.02.061.061.143.082.204.04.122.081.265.101.387.061.305.082.489.082.835 0 .326.265.611.61.611h2.384c.102 0 .102 0 .163.061.04.061.06.061.02.02.04.062.04.082.02.02V54.2c0 .326.286.611.611.611h5.072c.244 0 .448 0 .651.062.224.06.428.203.591.386.061.062.102.143.183.286-.04-.082.041.101.041.122 0 .02.04.203.02.122.02.102 0 .204 0 .306 0 1.222 0 2.423-.02 3.645 0 1.792-.02 3.585-.02 5.377 0 1.059-.041 2.138-.02 3.218v.04c0 .775 1.221.775 1.221 0Z" fill="#fff" fill-rule="evenodd" data-name="Path 7005"/></g></g><g data-name="Group 832"><g data-name="Group 831"><path d="M259.17 54.688c0 .957.793 1.69 1.73 1.711H272c.957 0 1.752-.733 1.792-1.71.02-.327-.285-.612-.61-.612-.347 0-.591.285-.612.611 0-.04-.02.102-.04.143 0 0-.061.122-.041.102-.122.163-.183.183-.346.224-.061.02-.102.02-.184.02H260.88a.468.468 0 0 1-.367-.163.64.64 0 0 1-.122-.326c0-.794-1.222-.794-1.222 0Z" fill="#fff" fill-rule="evenodd" data-name="Path 7006"/></g></g></g><g data-name="Group 841"><g data-name="Group 835"><g data-name="Group 834"><path d="M256.705 62.713c.387.387.753.794 1.14 1.181a.608.608 0 0 0 .856 0c.957-.876 1.894-1.752 2.85-2.627.144-.123.266-.245.408-.387.245-.224.224-.632 0-.856-.244-.244-.61-.224-.855 0-.957.876-1.894 1.752-2.851 2.628-.143.122-.265.244-.408.387h.856c-.387-.387-.754-.795-1.14-1.182-.225-.244-.632-.224-.856 0-.245.224-.224.611 0 .856Z" fill="#fff" fill-rule="evenodd" data-name="Path 7007"/></g></g><g data-name="Group 840"><g data-name="Group 837"><g data-name="Group 836"><path d="M265.014 61.022h6.721c.795 0 .795-1.222 0-1.222h-6.721c-.774 0-.794 1.222 0 1.222Z" fill="#fff" fill-rule="evenodd" data-name="Path 7008"/></g></g><g data-name="Group 839"><g data-name="Group 838"><path d="M265.014 64.423h11.324c.794 0 .794-1.222 0-1.222h-11.324c-.774 0-.794 1.222 0 1.222Z" fill="#fff" fill-rule="evenodd" data-name="Path 7009"/></g></g></g></g><g data-name="Group 843"><g data-name="Group 842"><path d="M271.98 90.778c-.469-.02-.896-.305-1.263-.652-.489-.448-.896-.998-1.385-1.446-.53-.468-1.059-.713-1.751-.753-.632-.041-1.284.04-1.915.02-.244 0-.468 0-.692-.061-.265-.04-.49-.122-.652-.265-.387-.285-.489-.774-.51-1.242-.06-1.202.327-2.607-.447-3.646-.408-.55-.937-.977-1.446-1.446-.367-.346-.774-.774-.897-1.263-.122-.427.062-.855.347-1.242.387-.489.896-.896 1.344-1.324.468-.448.937-.937 1.059-1.609.122-.652.061-1.303.04-1.955-.02-.55-.06-1.1.164-1.609.163-.387.53-.59.998-.692 1.16-.224 2.484.264 3.625-.245 1.14-.509 1.67-1.853 2.75-2.444.407-.224.834-.224 1.262 0 .51.285.896.733 1.283 1.161.448.489.917 1.039 1.528 1.304.59.244 1.283.224 1.914.183.57-.02 1.181-.082 1.711.04.448.102.794.347.937.754.183.51.163 1.06.142 1.61-.02.65-.081 1.303.062 1.954.285 1.263 1.65 1.894 2.382 2.852.306.407.469.835.326 1.303-.142.469-.57.896-.937 1.243-.488.468-1.038.896-1.425 1.446-.367.53-.428 1.18-.428 1.812 0 .611.082 1.222.02 1.854-.04.427-.163.896-.488 1.14-.387.306-.937.326-1.426.306-.631 0-1.263-.082-1.894-.02a2.82 2.82 0 0 0-1.752.773c-.468.448-.875.957-1.344 1.405-.366.449-.774.734-1.242.754-.795.02-.795 1.222 0 1.222.774 0 .794-1.222 0-1.222V92c1.466-.04 2.322-1.263 3.258-2.22.204-.204.408-.428.673-.53.183-.08.509-.101.753-.101.652 0 1.304.06 1.935.04.672-.04 1.324-.203 1.853-.63.49-.408.754-1.02.835-1.65.102-.652.041-1.304.02-1.976-.02-.59-.04-1.1.306-1.548.835-1.018 2.22-1.71 2.485-3.116.265-1.446-.774-2.444-1.752-3.34-.448-.408-.957-.815-1.038-1.406-.082-.61.02-1.283.02-1.914 0-.652-.061-1.324-.367-1.915a2.342 2.342 0 0 0-1.486-1.14c-.611-.183-1.263-.163-1.894-.143-.326.02-.652.041-.978.02-.244 0-.59-.02-.754-.101-.264-.122-.488-.367-.692-.57-.265-.265-.51-.55-.774-.835-.448-.49-.957-.937-1.568-1.182-.632-.264-1.324-.224-1.935.061-.57.265-1.06.713-1.487 1.182l-.672.733c-.204.224-.468.489-.733.59-.51.204-1.263.102-1.833.082-1.242-.04-2.689.081-3.32 1.344-.285.59-.346 1.243-.346 1.874s.122 1.344 0 1.955c-.102.57-.652.998-1.1 1.385-.489.428-.957.876-1.303 1.426-.367.57-.51 1.242-.347 1.914.143.632.55 1.181.998 1.63.49.509 1.1.916 1.528 1.486.326.428.285 1.019.265 1.569-.041 1.222-.163 2.688.896 3.543 1.1.876 2.566.55 3.87.591.223 0 .529.04.671.102.286.122.51.387.734.59.448.469.875.998 1.385 1.406.53.427 1.12.733 1.812.733.856.081.856-1.14.082-1.16Z" fill="#fff" fill-rule="evenodd" data-name="Path 7010"/></g></g><g data-name="Group 844"><path d="M269.352 77.866c-.122 0-.224.04-.285.122a.582.582 0 0 0-.102.346v1.772l-1.18-1.792-.103-.163c-.04-.061-.081-.102-.122-.143-.04-.04-.081-.081-.142-.102a.602.602 0 0 0-.204-.04.41.41 0 0 0-.265.081.578.578 0 0 0-.183.204c-.02.081-.04.163-.04.285v2.648c0 .142.04.264.1.346a.415.415 0 0 0 .306.122c.123 0 .224-.04.306-.122a.479.479 0 0 0 .122-.346v-1.711l1.161 1.772c.04.06.082.101.122.163.041.06.082.101.143.142.06.04.102.082.163.102.06.02.122.04.203.04.163 0 .448-.06.448-.529v-2.709a.583.583 0 0 0-.101-.346.511.511 0 0 0-.347-.142Z" fill="#fff" fill-rule="evenodd" data-name="Path 7011"/><path d="M272.754 80.798h-1.528v-.814h1.365a.5.5 0 0 0 .305-.102.337.337 0 0 0 .102-.245.337.337 0 0 0-.102-.244.403.403 0 0 0-.285-.102h-1.364v-.672h1.486a.5.5 0 0 0 .306-.102c.081-.06.102-.142.102-.264a.337.337 0 0 0-.102-.245c-.061-.061-.163-.102-.306-.102H270.9c-.102 0-.203.02-.285.041a.4.4 0 0 0-.183.183.591.591 0 0 0-.061.285v2.587c0 .163.04.306.122.387.081.081.204.122.387.122h1.894a.5.5 0 0 0 .306-.102c.081-.06.101-.163.101-.264a.387.387 0 0 0-.101-.265.854.854 0 0 0-.326-.082Z" fill="#fff" fill-rule="evenodd" data-name="Path 7012"/><path d="M277.621 77.988a.402.402 0 0 0-.285-.122.352.352 0 0 0-.265.101.48.48 0 0 0-.122.184c-.02.06-.04.142-.06.244l-.367 1.67-.428-1.548c-.04-.163-.082-.265-.102-.346a.427.427 0 0 0-.163-.224.518.518 0 0 0-.326-.102.518.518 0 0 0-.326.102.427.427 0 0 0-.163.224c-.04.081-.06.183-.101.346l-.408 1.548-.366-1.67a1.891 1.891 0 0 0-.123-.367c-.04-.081-.122-.162-.325-.162a.37.37 0 0 0-.286.122.37.37 0 0 0-.122.285c0 .081.02.183.061.326l.57 2.301c.021.061.041.143.062.224.02.082.06.163.101.224a.62.62 0 0 0 .163.163c.062.04.163.061.245.061a.5.5 0 0 0 .305-.102.577.577 0 0 0 .163-.224c.02-.06.061-.183.102-.346l.489-1.772.468 1.772c.041.163.082.285.102.346.02.082.082.143.163.224a.5.5 0 0 0 .306.102c.142 0 .244-.04.325-.102.082-.06.123-.142.163-.224.02-.081.062-.183.102-.346l.57-2.301c.041-.143.062-.265.062-.326-.061-.122-.102-.224-.184-.285Z" fill="#fff" fill-rule="evenodd" data-name="Path 7013"/></g><g data-name="Group 846"><g data-name="Group 845"><path d="M272.224 87.234c-3.075-.02-5.947-1.996-6.986-4.888a7.464 7.464 0 0 1 2.281-8.31c1.12-.936 2.648-1.568 4.115-1.67a7.516 7.516 0 0 1 4.48 1.06c1.283.774 2.281 1.914 2.933 3.32.611 1.344.815 3.014.51 4.48a7.311 7.311 0 0 1-2.16 3.93c-1.1 1.06-2.464 1.732-4.012 1.976a6.841 6.841 0 0 1-1.16.102c-.795 0-.795 1.222 0 1.222 3.624-.02 6.883-2.322 8.146-5.723 1.242-3.38.163-7.332-2.607-9.613a8.858 8.858 0 0 0-4.888-1.975c-1.772-.143-3.605.305-5.133 1.221-3.116 1.895-4.725 5.601-3.991 9.186.692 3.442 3.605 6.252 7.087 6.782.469.061.917.122 1.385.122.794 0 .794-1.222 0-1.222Z" fill="#fff" fill-rule="evenodd" data-name="Path 7014"/></g></g></g></g></g></svg>